<?xml version="1.0" encoding="UTF-8" standalone="no"?>
<svg
   xmlns:dc="http://purl.org/dc/elements/1.1/"
   xmlns:cc="http://creativecommons.org/ns#"
   xmlns:rdf="http://www.w3.org/1999/02/22-rdf-syntax-ns#"
   xmlns:svg="http://www.w3.org/2000/svg"
   xmlns="http://www.w3.org/2000/svg"
   xmlns:sodipodi="http://sodipodi.sourceforge.net/DTD/sodipodi-0.dtd"
   xmlns:inkscape="http://www.inkscape.org/namespaces/inkscape"
   enable-background="new 0 0 32 32"
   id="Editable-line"
   version="1.1"
   viewBox="0 0 32 32"
   xml:space="preserve"
   sodipodi:docname="logo.svg"
   inkscape:version="0.92.3 (2405546, 2018-03-11)"><metadata
     id="metadata9"><rdf:RDF><cc:Work
         rdf:about=""><dc:format>image/svg+xml</dc:format><dc:type
           rdf:resource="http://purl.org/dc/dcmitype/StillImage" /></cc:Work></rdf:RDF></metadata><defs
     id="defs7" /><sodipodi:namedview
     pagecolor="#ffffff"
     bordercolor="#666666"
     borderopacity="1"
     objecttolerance="10"
     gridtolerance="10"
     guidetolerance="10"
     inkscape:pageopacity="0"
     inkscape:pageshadow="2"
     inkscape:window-width="1920"
     inkscape:window-height="1017"
     id="namedview5"
     showgrid="false"
     inkscape:zoom="7.375"
     inkscape:cx="16"
     inkscape:cy="16"
     inkscape:window-x="-8"
     inkscape:window-y="-8"
     inkscape:window-maximized="1"
     inkscape:current-layer="Editable-line" /><circle
     cx="16"
     cy="16"
     fill="none"
     id="XMLID_224_"
     r="4"
     stroke="#000000"
     stroke-linecap="round"
     stroke-linejoin="round"
     stroke-miterlimit="10"
     stroke-width="2" /><path
     d="  M27.758,10.366l-1-1.732c-0.552-0.957-1.775-1.284-2.732-0.732L23.5,8.206C21.5,9.36,19,7.917,19,5.608V5c0-1.105-0.895-2-2-2h-2  c-1.105,0-2,0.895-2,2v0.608c0,2.309-2.5,3.753-4.5,2.598L7.974,7.902C7.017,7.35,5.794,7.677,5.242,8.634l-1,1.732  c-0.552,0.957-0.225,2.18,0.732,2.732L5.5,13.402c2,1.155,2,4.041,0,5.196l-0.526,0.304c-0.957,0.552-1.284,1.775-0.732,2.732  l1,1.732c0.552,0.957,1.775,1.284,2.732,0.732L8.5,23.794c2-1.155,4.5,0.289,4.5,2.598V27c0,1.105,0.895,2,2,2h2  c1.105,0,2-0.895,2-2v-0.608c0-2.309,2.5-3.753,4.5-2.598l0.526,0.304c0.957,0.552,2.18,0.225,2.732-0.732l1-1.732  c0.552-0.957,0.225-2.18-0.732-2.732L26.5,18.598c-2-1.155-2-4.041,0-5.196l0.526-0.304C27.983,12.546,28.311,11.323,27.758,10.366z  "
     fill="none"
     id="XMLID_242_"
     stroke="#000000"
     stroke-linecap="round"
     stroke-linejoin="round"
     stroke-miterlimit="10"
     stroke-width="2" /><path
     style="fill:#ffffff;stroke-width:0.13559322"
     d=""
     id="path3714"
     inkscape:connector-curvature="0" /><path
     style="fill:#ffffff;stroke-width:0.13559322"
     d="m 14.05898,29.780439 c -1.152018,-0.365266 -1.987529,-1.639415 -1.989859,-3.034523 -0.0024,-1.410807 -0.668614,-2.245734 -1.883055,-2.359768 -0.5146073,-0.04832 -0.8080114,0.02832 -1.6398678,0.428348 C 7.1533997,25.484275 6.2342309,25.443756 5.1871203,24.666418 4.6166532,24.242922 3.2830849,21.974527 3.1333297,21.172927 2.8866095,19.852298 3.4349971,18.79957 4.8367714,17.902866 5.3945414,17.546065 5.6459658,17.275889 5.8504808,16.813548 6.3719915,15.634587 5.9956597,14.869295 4.3208508,13.70296 3.4842113,13.120326 3.0777129,12.327831 3.0921789,11.307586 3.1024184,10.585423 3.185195,10.353967 3.8585249,9.1647689 4.6392545,7.7858872 5.1513878,7.2336107 5.9656598,6.8924674 6.6700323,6.5973671 7.7815294,6.7417001 8.7389087,7.2525863 9.6750049,7.7521154 10.274212,7.7854871 10.998475,7.3784283 11.65904,7.0071703 12.067515,6.2110281 12.068553,5.2927832 12.06961,4.3551115 12.263932,3.7588035 12.767282,3.14859 13.4677,2.2994699 14.028607,2.12121 16,2.12121 c 1.971394,0 2.5323,0.1782599 3.232719,1.02738 0.511562,0.6201693 0.697693,1.206868 0.698728,2.2024398 9.49e-4,0.9156753 0.390017,1.6451831 1.08605,2.0363755 0.717647,0.4033405 1.279486,0.3587121 2.36456,-0.1878231 0.688557,-0.3468162 1.117609,-0.4741585 1.597574,-0.4741585 1.352033,0 2.113149,0.5871975 3.161844,2.4393452 0.67333,1.1891981 0.756106,1.4206541 0.766346,2.1428171 0.01447,1.020245 -0.392033,1.81274 -1.228673,2.395374 -1.674808,1.166335 -2.05114,1.931627 -1.529629,3.110588 0.204515,0.462341 0.45594,0.732517 1.013709,1.089318 1.944539,1.243907 2.256731,2.724607 1.02494,4.861203 -0.862714,1.49642 -1.181843,1.861215 -1.935011,2.211909 -0.975988,0.454446 -1.592495,0.418883 -2.799355,-0.161482 -0.831856,-0.400028 -1.125261,-0.476668 -1.639868,-0.428348 -1.218725,0.114436 -1.881731,0.94925 -1.881731,2.369352 0,1.073726 -0.518146,2.115461 -1.333469,2.680949 -0.573649,0.397868 -0.630413,0.408305 -2.372882,0.436316 -0.981846,0.01578 -1.956938,-0.02576 -2.166872,-0.09233 z m 3.663779,-2.071964 c 0.207405,-0.227199 0.294779,-0.547957 0.342246,-1.256422 0.111847,-1.669353 0.839497,-2.845446 2.206181,-3.565829 0.557157,-0.293679 0.861328,-0.357966 1.706962,-0.360775 0.898995,-0.003 1.136945,0.05226 1.883453,0.437263 0.898356,0.463318 1.419573,0.541592 1.777092,0.266874 0.118232,-0.09085 0.504571,-0.667951 0.858533,-1.28245 0.82431,-1.431049 0.789022,-1.715992 -0.305195,-2.464373 -1.511567,-1.033825 -2.073387,-1.976036 -2.073387,-3.477219 0,-1.501833 0.643755,-2.579783 2.095107,-3.508202 1.049289,-0.671222 1.096519,-0.984612 0.35173,-2.333839 -0.315691,-0.5718915 -0.686478,-1.1522965 -0.82397,-1.2897886 -0.36396,-0.3639591 -0.958356,-0.3077067 -1.91487,0.1812194 -2.612299,1.3352882 -5.52687,-0.3538477 -5.747712,-3.3310811 -0.0974,-1.3131156 -0.14741,-1.4390669 -0.655671,-1.6514321 -0.599551,-0.2505083 -2.246965,-0.2505083 -2.846516,0 C 14.068481,4.2847858 14.018474,4.4107371 13.921071,5.7238527 13.700229,8.7010861 10.785659,10.390222 8.1733582,9.0549338 7.2168441,8.5660077 6.6224481,8.5097553 6.2584889,8.8737144 6.1209969,9.0112065 5.7502106,9.5916115 5.4345192,10.163503 4.6897299,11.51273 4.7369607,11.82612 5.7862499,12.497342 c 1.451352,0.928419 2.095106,2.006369 2.095106,3.508202 0,1.499289 -0.5621589,2.443599 -2.0677482,3.473389 -0.7456623,0.510018 -0.9322518,0.745485 -0.9322518,1.17646 0,0.274065 1.1976939,2.357307 1.4799505,2.574193 0.3575188,0.274718 0.8787364,0.196444 1.7770928,-0.266874 0.7465074,-0.385004 0.984458,-0.440247 1.8834528,-0.437263 0.845634,0.0028 1.149805,0.0671 1.706962,0.360775 1.366685,0.720383 2.094334,1.896476 2.206181,3.565829 0.09679,1.444648 0.25133,1.561506 2.065005,1.561506 1.324828,0 1.467283,-0.02523 1.722759,-0.305084 z"
     id="path3716"
     inkscape:connector-curvature="0" /><path
     style="fill:#ffffff;stroke-width:0.13559322"
     d="m 14.749281,20.762144 c -1.358444,-0.373928 -2.686604,-1.494762 -3.268947,-2.758663 -0.237069,-0.514528 -0.292279,-0.889486 -0.293002,-1.989922 -7.89e-4,-1.200253 0.04121,-1.44166 0.365824,-2.102606 0.497879,-1.013739 1.355492,-1.851561 2.412946,-2.357263 0.772446,-0.369403 1.023777,-0.421487 2.033898,-0.421487 1.010121,0 1.261452,0.05208 2.033898,0.421487 1.057454,0.505702 1.915067,1.343524 2.412946,2.357263 0.324612,0.660946 0.366613,0.902353 0.365824,2.102606 -10e-4,1.591634 -0.234655,2.243709 -1.165667,3.253738 -0.724475,0.785962 -1.552208,1.277908 -2.542262,1.51094 -0.931967,0.21936 -1.514539,0.21538 -2.355458,-0.01609 z m 2.564671,-2.028063 C 19.265105,17.825639 19.641666,15.084209 18.00487,13.704078 17.381167,13.178177 16.798485,12.962712 16,12.962712 c -2.521692,0 -3.919611,2.818229 -2.422833,4.884471 0.497279,0.686474 1.550733,1.214575 2.422833,1.214575 0.360686,0 0.897929,-0.133979 1.313952,-0.327677 z"
     id="path3718"
     inkscape:connector-curvature="0" /></svg>